# xmcd
#
# Track frame offsets:
#	150
#	16862
#	34203
#	51798
#	71370
#	89622
#	107169
#	124319
#	143941
#	161422
#	180224
#	196359
#
# Disc length: 2877 seconds
#
# Revision: 8
# Processed by: cddbd v1.4PL0 Copyright (c) Steve Scherf et al.
# Submitted via: CDmax 1.9
#
DISCID=9f0b3b0c
DTITLE=Café Quijano - La Taberna del Buda
DYEAR=2001
DGENRE=Blues
TTITLE0=Nada De Ná
TTITLE1=De Piratas
TTITLE2=Desde Brasil
TTITLE3=Lucia, La Corista
TTITLE4=Que Le Debo La Vida
TTITLE5=En Aquel Hotel Jamaicano
TTITLE6=La Taberna Del Buda
TTITLE7=Otra Vez (Que Pena De Mi)
TTITLE8=Las Llaves De Raquel
TTITLE9=Que Poca Cosa
TTITLE10=En Mis Besos
TTITLE11=Otra Vez (Que Pena De Mi) Ccn Olga Tañón
EXTD=ID3G: 0
EXTT0=
EXTT1=
EXTT2=
EXTT3=
EXTT4=
EXTT5=
EXTT6=
EXTT7=
EXTT8=
EXTT9=
EXTT10=
EXTT11=
PLAYORDER=
